# Blender v2.90.1 OBJ File: 'Compass.blend'
# www.blender.org
mtllib Compass.mtl
o N_Text
v 0.233144 1.273308 -1.828009
v 0.172834 1.273308 -1.828009
v 0.172834 0.927180 -1.828009
v -0.130028 1.273308 -1.828009
v -0.181161 1.273308 -1.828009
v -0.181161 0.826226 -1.828009
v -0.120851 0.826226 -1.828009
v -0.120851 1.170387 -1.828009
v 0.178078 0.826226 -1.828009
v 0.233144 0.826226 -1.828009
vt 0.555556 0.000000
vt 0.333333 0.000000
vt 0.444444 0.000000
vt 0.777778 0.000000
vt 0.222222 0.000000
vt 0.000000 0.000000
vt 0.111111 0.000000
vt 1.000000 0.000000
vt 0.666667 0.000000
vt 0.888889 0.000000
vn 0.0000 0.0000 1.0000
usemtl Material.001
s off
f 6/1/1 4/2/1 5/3/1
f 6/1/1 8/4/1 4/2/1
f 8/4/1 3/5/1 4/2/1
f 3/5/1 1/6/1 2/7/1
f 3/5/1 10/8/1 1/6/1
f 6/1/1 7/9/1 8/4/1
f 9/10/1 3/5/1 8/4/1
f 9/10/1 10/8/1 3/5/1
o N.001_Text.001
v -1.828009 1.273308 -0.351285
v -1.828009 1.273308 -0.287697
v -1.828009 0.965202 -0.165766
v -1.828009 1.273308 -0.041212
v -1.828009 1.273308 0.019754
v -1.828009 0.965202 0.143652
v -1.828009 1.273308 0.266894
v -1.828009 1.273308 0.331138
v -1.828009 0.822293 0.150207
v -1.828009 0.822293 0.137752
v -1.828009 1.188087 -0.010402
v -1.828009 0.822293 -0.157244
v -1.828009 0.822293 -0.169699
vt 0.666667 0.000000
vt 0.500000 0.000000
vt 0.583333 0.000000
vt 0.416667 0.000000
vt 0.250000 0.000000
vt 0.333333 0.000000
vt 0.833333 0.000000
vt 0.166667 0.000000
vt 0.000000 0.000000
vt 0.083333 0.000000
vt 1.000000 0.000000
vt 0.750000 0.000000
vt 0.916667 0.000000
vn 1.0000 -0.0000 0.0000
usemtl Material.001
s off
f 19/11/2 17/12/2 18/13/2
f 19/11/2 16/14/2 17/12/2
f 16/14/2 14/15/2 15/16/2
f 16/14/2 21/17/2 14/15/2
f 21/17/2 13/18/2 14/15/2
f 13/18/2 11/19/2 12/20/2
f 13/18/2 23/21/2 11/19/2
f 16/14/2 20/22/2 21/17/2
f 22/23/2 13/18/2 21/17/2
f 19/11/2 20/22/2 16/14/2
f 22/23/2 23/21/2 13/18/2
o N.002_Text.002
v -0.168595 1.247742 1.828009
v -0.160675 1.252768 1.828009
v -0.152655 1.257356 1.828009
v -0.144545 1.261508 1.828009
v -0.136352 1.265223 1.828009
v -0.128086 1.268501 1.828009
v -0.119757 1.271341 1.828009
v -0.111373 1.273745 1.828009
v -0.102943 1.275712 1.828009
v -0.094477 1.277241 1.828009
v -0.085984 1.278334 1.828009
v -0.077473 1.278989 1.828009
v -0.068952 1.279208 1.828009
v -0.049068 1.278250 1.828009
v -0.030448 1.275423 1.828009
v -0.013179 1.270798 1.828009
v 0.002648 1.264446 1.828009
v 0.016946 1.256436 1.828009
v 0.029626 1.246840 1.828009
v 0.040598 1.235728 1.828009
v 0.049775 1.223171 1.828009
v 0.057066 1.209239 1.828009
v 0.062385 1.194002 1.828009
v 0.065641 1.177532 1.828009
v 0.066746 1.159899 1.828009
v 0.062941 1.131475 1.828009
v 0.052421 1.107048 1.828009
v 0.036529 1.085945 1.828009
v 0.016609 1.067491 1.828009
v -0.005998 1.051013 1.828009
v -0.029947 1.035837 1.828009
v -0.053896 1.021289 1.828009
v -0.076503 1.006695 1.828009
v -0.096423 0.991382 1.828009
v -0.112315 0.974677 1.828009
v -0.122835 0.955904 1.828009
v -0.126640 0.934391 1.828009
v -0.126160 0.928049 1.828009
v -0.124710 0.921565 1.828009
v -0.122276 0.915073 1.828009
v -0.118846 0.908703 1.828009
v -0.114405 0.902589 1.828009
v -0.108940 0.896861 1.828009
v -0.102437 0.891652 1.828009
v -0.094882 0.887094 1.828009
v -0.086262 0.883320 1.828009
v -0.076564 0.880460 1.828009
v -0.065772 0.878648 1.828009
v -0.053874 0.878014 1.828009
v -0.042952 0.878490 1.828009
v -0.032159 0.879908 1.828009
v -0.021517 0.882255 1.828009
v -0.011045 0.885516 1.828009
v -0.000765 0.889679 1.828009
v 0.009304 0.894730 1.828009
v 0.019140 0.900655 1.828009
v 0.028724 0.907441 1.828009
v 0.038035 0.915073 1.828009
v 0.047052 0.923538 1.828009
v 0.055755 0.932823 1.828009
v 0.064124 0.942913 1.828009
v 0.064124 0.861625 1.828009
v 0.054737 0.854891 1.828009
v 0.045243 0.848778 1.828009
v 0.035618 0.843280 1.828009
v 0.025835 0.838390 1.828009
v 0.015870 0.834100 1.828009
v 0.005698 0.830405 1.828009
v -0.004706 0.827297 1.828009
v -0.015367 0.824769 1.828009
v -0.026311 0.822815 1.828009
v -0.037562 0.821428 1.828009
v -0.049145 0.820600 1.828009
v -0.061085 0.820326 1.828009
v -0.078697 0.821373 1.828009
v -0.095398 0.824438 1.828009
v -0.111071 0.829411 1.828009
v -0.125596 0.836180 1.828009
v -0.138856 0.844634 1.828009
v -0.150731 0.854660 1.828009
v -0.161105 0.866148 1.828009
v -0.169857 0.878985 1.828009
v -0.176871 0.893061 1.828009
v -0.182028 0.908263 1.828009
v -0.185208 0.924481 1.828009
v -0.186295 0.941602 1.828009
v -0.182490 0.974308 1.828009
v -0.171970 1.001833 1.828009
v -0.156078 1.024979 1.828009
v -0.136158 1.044547 1.828009
v -0.113551 1.061338 1.828009
v -0.089602 1.076153 1.828009
v -0.065652 1.089793 1.828009
v -0.043046 1.103060 1.828009
v -0.023125 1.116755 1.828009
v -0.007234 1.131680 1.828009
v 0.003286 1.148634 1.828009
v 0.007091 1.168421 1.828009
v 0.006487 1.176076 1.828009
v 0.004715 1.183280 1.828009
v 0.001837 1.189992 1.828009
v -0.002086 1.196172 1.828009
v -0.006993 1.201778 1.828009
v -0.012821 1.206770 1.828009
v -0.019509 1.211106 1.828009
v -0.026997 1.214746 1.828009
v -0.035222 1.217648 1.828009
v -0.044123 1.219772 1.828009
v -0.053639 1.221076 1.828009
v -0.063708 1.221520 1.828009
v -0.071380 1.221293 1.828009
v -0.079307 1.220576 1.828009
v -0.087471 1.219318 1.828009
v -0.095854 1.217465 1.828009
v -0.104436 1.214966 1.828009
v -0.113201 1.211769 1.828009
v -0.122130 1.207820 1.828009
v -0.131205 1.203068 1.828009
v -0.140406 1.197459 1.828009
v -0.149718 1.190943 1.828009
v -0.159120 1.183466 1.828009
v -0.168595 1.174976 1.828009
vt 0.107438 0.000000
vt 0.090909 0.000000
vt 0.099174 0.000000
vt 0.082645 0.000000
vt 0.074380 0.000000
vt 0.115702 0.000000
vt 0.066116 0.000000
vt 0.057851 0.000000
vt 0.123967 0.000000
vt 0.049587 0.000000
vt 0.041322 0.000000
vt 0.132231 0.000000
vt 0.033058 0.000000
vt 0.024793 0.000000
vt 0.140496 0.000000
vt 0.016529 0.000000
vt 0.008264 0.000000
vt 0.148760 0.000000
vt 0.000000 0.000000
vt 0.933884 0.000000
vt 0.942149 0.000000
vt 0.950413 0.000000
vt 0.958678 0.000000
vt 0.966942 0.000000
vt 0.975207 0.000000
vt 0.983471 0.000000
vt 0.991736 0.000000
vt 1.000000 0.000000
vt 0.157025 0.000000
vt 0.917355 0.000000
vt 0.925620 0.000000
vt 0.165289 0.000000
vt 0.900826 0.000000
vt 0.909091 0.000000
vt 0.173554 0.000000
vt 0.892562 0.000000
vt 0.884298 0.000000
vt 0.876033 0.000000
vt 0.867769 0.000000
vt 0.859504 0.000000
vt 0.851240 0.000000
vt 0.181818 0.000000
vt 0.842975 0.000000
vt 0.834711 0.000000
vt 0.826446 0.000000
vt 0.190083 0.000000
vt 0.818182 0.000000
vt 0.809917 0.000000
vt 0.198347 0.000000
vt 0.801653 0.000000
vt 0.793388 0.000000
vt 0.206612 0.000000
vt 0.785124 0.000000
vt 0.776860 0.000000
vt 0.214876 0.000000
vt 0.768595 0.000000
vt 0.223140 0.000000
vt 0.760331 0.000000
vt 0.752066 0.000000
vt 0.231405 0.000000
vt 0.743802 0.000000
vt 0.239669 0.000000
vt 0.735537 0.000000
vt 0.247934 0.000000
vt 0.727273 0.000000
vt 0.256198 0.000000
vt 0.719008 0.000000
vt 0.264463 0.000000
vt 0.272727 0.000000
vt 0.710744 0.000000
vt 0.280992 0.000000
vt 0.289256 0.000000
vt 0.702479 0.000000
vt 0.297521 0.000000
vt 0.504132 0.000000
vt 0.487603 0.000000
vt 0.495868 0.000000
vt 0.694215 0.000000
vt 0.305785 0.000000
vt 0.479339 0.000000
vt 0.314050 0.000000
vt 0.685950 0.000000
vt 0.471074 0.000000
vt 0.322314 0.000000
vt 0.462810 0.000000
vt 0.330579 0.000000
vt 0.338843 0.000000
vt 0.677686 0.000000
vt 0.454545 0.000000
vt 0.347107 0.000000
vt 0.446281 0.000000
vt 0.355372 0.000000
vt 0.438017 0.000000
vt 0.669421 0.000000
vt 0.363636 0.000000
vt 0.429752 0.000000
vt 0.371901 0.000000
vt 0.421488 0.000000
vt 0.380165 0.000000
vt 0.413223 0.000000
vt 0.388430 0.000000
vt 0.404959 0.000000
vt 0.661157 0.000000
vt 0.396694 0.000000
vt 0.652893 0.000000
vt 0.512397 0.000000
vt 0.520661 0.000000
vt 0.644628 0.000000
vt 0.528926 0.000000
vt 0.636364 0.000000
vt 0.537190 0.000000
vt 0.545455 0.000000
vt 0.628099 0.000000
vt 0.553719 0.000000
vt 0.561983 0.000000
vt 0.619835 0.000000
vt 0.570248 0.000000
vt 0.578512 0.000000
vt 0.611570 0.000000
vt 0.586777 0.000000
vt 0.595041 0.000000
vt 0.603306 0.000000
vn 0.0000 0.0000 -1.0000
vn 0.0000 -0.0001 -1.0000
vn -0.0000 0.0001 -1.0000
usemtl Material.001
s off
f 37/24/3 35/25/3 36/26/3
f 37/24/3 34/27/3 35/25/3
f 37/24/3 33/28/3 34/27/3
f 38/29/3 33/28/3 37/24/3
f 38/29/3 32/30/3 33/28/3
f 38/29/3 31/31/3 32/30/3
f 39/32/3 31/31/3 38/29/3
f 39/32/3 30/33/3 31/31/3
f 39/32/3 29/34/3 30/33/3
f 40/35/3 29/34/3 39/32/3
f 40/35/3 28/36/3 29/34/3
f 40/35/3 27/37/3 28/36/3
f 41/38/3 27/37/3 40/35/3
f 41/38/3 26/39/3 27/37/3
f 41/38/3 25/40/3 26/39/3
f 42/41/3 25/40/3 41/38/3
f 42/41/3 24/42/3 25/40/3
f 42/41/3 137/43/3 24/42/3
f 137/43/3 138/44/3 24/42/3
f 138/44/3 139/45/3 24/42/3
f 139/45/3 140/46/3 24/42/3
f 140/46/3 141/47/3 24/42/3
f 141/47/3 142/48/3 24/42/3
f 142/48/3 143/49/3 24/42/3
f 143/49/3 144/50/3 24/42/3
f 144/50/3 145/51/3 24/42/3
f 43/52/3 135/53/3 42/41/3
f 135/53/3 136/54/3 42/41/3
f 136/54/4 137/43/4 42/41/4
f 44/55/3 133/56/3 43/52/3
f 133/56/3 134/57/3 43/52/3
f 134/57/3 135/53/3 43/52/3
f 45/58/3 132/59/3 44/55/3
f 132/59/3 133/56/3 44/55/3
f 45/58/3 131/60/3 132/59/3
f 45/58/5 130/61/5 131/60/5
f 45/58/3 129/62/3 130/61/3
f 45/58/3 128/63/3 129/62/3
f 45/58/3 127/64/3 128/63/3
f 46/65/3 127/64/3 45/58/3
f 46/65/3 126/66/3 127/64/3
f 46/65/3 125/67/3 126/66/3
f 46/65/3 124/68/3 125/67/3
f 47/69/3 124/68/3 46/65/3
f 47/69/3 123/70/3 124/68/3
f 47/69/3 122/71/3 123/70/3
f 48/72/3 122/71/3 47/69/3
f 48/72/3 121/73/3 122/71/3
f 48/72/3 120/74/3 121/73/3
f 49/75/3 120/74/3 48/72/3
f 49/75/3 119/76/3 120/74/3
f 49/75/3 118/77/3 119/76/3
f 50/78/3 118/77/3 49/75/3
f 50/78/3 117/79/3 118/77/3
f 51/80/3 117/79/3 50/78/3
f 51/80/3 116/81/3 117/79/3
f 51/80/3 115/82/3 116/81/3
f 52/83/3 115/82/3 51/80/3
f 52/83/3 114/84/3 115/82/3
f 53/85/3 114/84/3 52/83/3
f 53/85/3 113/86/3 114/84/3
f 54/87/3 113/86/3 53/85/3
f 54/87/3 112/88/3 113/86/3
f 55/89/3 112/88/3 54/87/3
f 55/89/3 111/90/3 112/88/3
f 56/91/3 111/90/3 55/89/3
f 57/92/3 111/90/3 56/91/3
f 57/92/3 110/93/3 111/90/3
f 58/94/3 110/93/3 57/92/3
f 59/95/3 110/93/3 58/94/3
f 59/95/3 109/96/3 110/93/3
f 60/97/3 109/96/3 59/95/3
f 85/98/3 83/99/3 84/100/3
f 60/97/3 108/101/3 109/96/3
f 61/102/3 108/101/3 60/97/3
f 85/98/3 82/103/3 83/99/3
f 62/104/3 108/101/3 61/102/3
f 62/104/3 107/105/3 108/101/3
f 85/98/3 81/106/3 82/103/3
f 63/107/3 107/105/3 62/104/3
f 85/98/3 80/108/3 81/106/3
f 64/109/3 107/105/3 63/107/3
f 65/110/3 107/105/3 64/109/3
f 65/110/3 106/111/3 107/105/3
f 85/98/3 79/112/3 80/108/3
f 66/113/3 106/111/3 65/110/3
f 85/98/3 78/114/3 79/112/3
f 67/115/3 106/111/3 66/113/3
f 85/98/3 77/116/3 78/114/3
f 67/115/3 105/117/3 106/111/3
f 68/118/3 105/117/3 67/115/3
f 85/98/3 76/119/3 77/116/3
f 69/120/3 105/117/3 68/118/3
f 85/98/3 75/121/3 76/119/3
f 70/122/3 105/117/3 69/120/3
f 85/98/3 74/123/3 75/121/3
f 71/124/3 105/117/3 70/122/3
f 85/98/3 73/125/3 74/123/3
f 71/124/3 104/126/3 105/117/3
f 72/127/3 104/126/3 71/124/3
f 85/98/3 72/127/3 73/125/3
f 85/98/3 104/126/3 72/127/3
f 85/98/3 103/128/3 104/126/3
f 86/129/3 103/128/3 85/98/3
f 87/130/3 103/128/3 86/129/3
f 87/130/3 102/131/3 103/128/3
f 88/132/3 102/131/3 87/130/3
f 88/132/3 101/133/3 102/131/3
f 89/134/3 101/133/3 88/132/3
f 90/135/3 101/133/3 89/134/3
f 90/135/3 100/136/3 101/133/3
f 91/137/3 100/136/3 90/135/3
f 92/138/3 100/136/3 91/137/3
f 92/138/3 99/139/3 100/136/3
f 93/140/3 99/139/3 92/138/3
f 94/141/3 99/139/3 93/140/3
f 94/141/3 98/142/3 99/139/3
f 95/143/3 98/142/3 94/141/3
f 96/144/3 98/142/3 95/143/3
f 96/144/3 97/145/3 98/142/3
o N.003_Text.003
v 1.828009 1.273308 0.145571
v 1.828009 1.273308 -0.108126
v 1.828009 0.826226 -0.108126
v 1.828009 0.826226 0.151470
v 1.828009 0.883914 0.151470
v 1.828009 0.883914 -0.043882
v 1.828009 1.022890 -0.043882
v 1.828009 1.022890 0.139015
v 1.828009 1.080578 0.139015
v 1.828009 1.080578 -0.043882
v 1.828009 1.215620 -0.043882
v 1.828009 1.215620 0.145571
vt 0.181818 0.000000
vt 0.909091 0.000000
vt 0.090909 0.000000
vt 0.000000 0.000000
vt 1.000000 0.000000
vt 0.818182 0.000000
vt 0.545455 0.000000
vt 0.727273 0.000000
vt 0.636364 0.000000
vt 0.454545 0.000000
vt 0.363636 0.000000
vt 0.272727 0.000000
vn -1.0000 0.0000 0.0000
usemtl Material.001
s off
f 148/146/6 156/147/6 147/148/6
f 156/147/6 146/149/6 147/148/6
f 156/147/6 157/150/6 146/149/6
f 148/146/6 155/151/6 156/147/6
f 148/146/6 152/152/6 155/151/6
f 152/152/6 154/153/6 155/151/6
f 152/152/6 153/154/6 154/153/6
f 148/146/6 151/155/6 152/152/6
f 148/146/6 150/156/6 151/155/6
f 148/146/6 149/157/6 150/156/6
