# Blender v2.90.1 OBJ File: 'Enclosure.blend'
# www.blender.org
mtllib Enclosure.mtl
o Top_Plane
v 99.000000 0.999991 99.000000
v -99.000000 1.000009 99.000000
v 99.000000 0.999991 -99.000000
v -99.000000 1.000009 -99.000000
vt 0.000000 0.000000
vt 1.000000 0.000000
vt 1.000000 1.000000
vt 0.000000 1.000000
vn -0.0000 -1.0000 0.0000
usemtl None
s off
f 1/1/1 2/2/1 4/3/1 3/4/1
o Bottom_Plane.001
v -99.000000 -1.000000 99.000000
v 99.000000 -1.000000 99.000000
v -99.000000 -1.000000 -99.000000
v 99.000000 -1.000000 -99.000000
vt 0.000000 0.000000
vt 1.000000 0.000000
vt 1.000000 1.000000
vt 0.000000 1.000000
vn 0.0000 1.0000 0.0000
usemtl None
s off
f 5/5/2 6/6/2 8/7/2 7/8/2
